<?xml version="1.0" encoding="UTF-8"?>
<svg xmlns="http://www.w3.org/2000/svg" width="1490" height="251" viewBox="0 0 1490 251" fill="none">
  <path d="M144.462 242.612H115.685C114.284 242.612 113.006 241.803 112.407 240.533L76.1797 163.717C75.0476 161.315 76.8035 158.551 79.4544 158.551H108.231C109.632 158.551 110.914 159.36 111.51 160.629L147.74 237.442C148.869 239.848 147.117 242.612 144.462 242.612Z" fill="#3840F7"></path>
  <path d="M35.1989 242.612H4.44912C2.78288 242.612 1.43555 241.257 1.43555 239.59V114.216C1.43555 112.549 2.78288 111.198 4.44912 111.198H35.1989C36.8652 111.198 38.2205 112.549 38.2205 114.216V239.59C38.2205 241.257 36.8652 242.612 35.1989 242.612Z" fill="#3840F7"></path>
  <path d="M158.475 76.685C157.464 117.444 124.364 149.405 85.2766 149.405C85.2766 149.405 67.2636 149.385 58.1215 149.356C55.2453 149.344 52.9288 146.915 52.9288 143.917L52.9326 117.741C52.9364 114.753 55.23 112.324 58.0947 112.304C66.2418 112.246 81.161 112.195 81.161 112.195C100.278 112.195 116.864 97.0974 118.1 77.199C118.805 65.8652 114.672 55.5215 107.648 48.198C101.143 41.4125 92.1614 37.2089 82.2382 37.2089H7.92477C7.85411 37.2089 7.79492 37.1511 7.79492 37.0774V0.131506C7.79492 0.0617782 7.85411 8.62145e-08 7.92477 8.62145e-08H86.8904C127.066 -0.00199214 159.523 34.5234 158.475 76.685Z" fill="#3840F7"></path>
  <path opacity="0.3" d="M86.8914 0H7.92478C7.85411 0 7.79492 0.0618385 7.79492 0.131635V37.1137C7.79492 37.1875 7.85411 37.2453 7.92478 37.2453H82.2391C92.1605 37.2453 104.802 43.5429 111.36 50.2813C132.329 71.8204 137.96 136.783 95.8694 148.756C130.171 143.599 157.558 113.816 158.475 76.7599C159.525 34.5591 127.068 0 86.8914 0Z" fill="#3840F7"></path>
  <path d="M86.953 0L7.92466 6.59619e-05C7.79492 6.59619e-05 7.79492 0.0619306 7.79492 0.131756L7.92466 37.1294C7.92466 37.2032 7.9838 37.261 8.05441 37.261H82.3047C140.962 38.3723 147.287 117.549 121.645 139.662C142.975 127.123 157.803 103.907 158.475 76.7904C159.524 34.5737 127.095 0 86.953 0Z" fill="#3840F7"></path>
  <path d="M1.29883 7.14547C1.29883 3.19914 4.49797 0 8.4443 0V37.2581C4.49797 37.2581 1.29883 34.0589 1.29883 30.1126V7.14547Z" fill="#3840F7"></path>
  <path d="M0.771484 70.0688C0.771484 71.3833 1.83708 72.4489 3.15155 72.4489C4.46603 72.4489 5.53162 71.3833 5.53162 70.0688V64.3785C5.53162 62.7216 6.87477 61.3785 8.53162 61.3785H15.0597C16.37 61.3785 17.4322 60.3163 17.4322 59.006C17.4322 57.6957 16.37 56.6335 15.0597 56.6335H3.77148C2.11463 56.6335 0.771484 57.9767 0.771484 59.6335V70.0688Z" fill="#FFC837"></path>
  <path d="M5.53162 80.3644C5.53162 79.05 4.46603 77.9844 3.15155 77.9844C1.83708 77.9844 0.771484 79.05 0.771484 80.3644V91.5904C0.771484 93.2473 2.11463 94.5904 3.77148 94.5904H14.2664C15.5767 94.5904 16.6389 93.5282 16.6389 92.218C16.6389 90.9077 15.5767 89.8455 14.2664 89.8455H8.53162C6.87477 89.8455 5.53162 88.5024 5.53162 86.8455V80.3644Z" fill="#FFC837"></path>
  <path d="M24.5639 56.6335C23.2536 56.6335 22.1914 57.6957 22.1914 59.006C22.1914 60.3163 23.2536 61.3785 24.5639 61.3785H31.092C32.7488 61.3785 34.092 62.7216 34.092 64.3785V70.0686C34.092 71.3832 35.1576 72.4489 36.4722 72.4489C37.7868 72.4489 38.8525 71.3832 38.8525 70.0686V59.6335C38.8525 57.9767 37.5093 56.6335 35.8525 56.6335H24.5639Z" fill="#FFC837"></path>
  <path d="M34.0932 86.8455C34.0932 88.5024 32.75 89.8455 31.0932 89.8455H25.3588C24.0485 89.8455 22.9863 90.9077 22.9863 92.218C22.9863 93.5282 24.0485 94.5904 25.3588 94.5904H35.8537C37.5106 94.5904 38.8537 93.2473 38.8537 91.5904V80.3646C38.8537 79.0501 37.788 77.9844 36.4735 77.9844C35.1589 77.9844 34.0932 79.0501 34.0932 80.3646V86.8455Z" fill="#FFC837"></path>
  <path d="M15.4561 73.2395H8.30309C7.21127 73.2395 6.32617 74.1246 6.32617 75.2164C6.32617 76.3082 7.21127 77.1933 8.30309 77.1933H15.4561C16.5479 77.1933 17.433 76.3082 17.433 75.2164C17.433 74.1246 16.5479 73.2395 15.4561 73.2395Z" fill="#FFC837"></path>
  <path d="M31.3217 73.2395H24.1683C23.0765 73.2395 22.1914 74.1246 22.1914 75.2164C22.1914 76.3082 23.0765 77.1933 24.1683 77.1933H31.3217C32.4136 77.1933 33.2987 76.3082 33.2987 75.2164C33.2987 74.1246 32.4136 73.2395 31.3217 73.2395Z" fill="#FFC837"></path>
  <path d="M263.602 245.622C247.638 245.622 233.891 242.518 222.361 236.31C210.831 229.88 201.962 221.122 195.754 210.035C189.546 198.727 186.441 185.978 186.441 171.788C186.441 158.041 189.878 145.624 196.752 134.538C203.847 123.23 213.27 114.25 225.022 107.598C236.773 100.946 249.855 97.6202 264.267 97.6202C282.892 97.6202 298.302 103.053 310.497 113.917C322.914 124.56 331.229 139.637 335.441 159.149L222.028 198.395L214.046 179.105L305.176 145.846L298.191 150.502C295.531 143.407 291.318 137.309 285.553 132.209C279.788 126.888 271.917 124.227 261.939 124.227C249.523 124.227 239.323 128.551 231.341 137.198C223.581 145.624 219.7 156.489 219.7 169.792C219.7 183.983 223.913 195.401 232.339 204.049C240.764 212.696 251.407 217.02 264.267 217.02C270.254 217.02 276.019 216.022 281.562 214.026C287.105 211.809 292.316 208.927 297.194 205.379L312.493 230.323C305.398 234.98 297.526 238.749 288.879 241.631C280.453 244.292 272.028 245.622 263.602 245.622Z" fill="#3840F7"></path>
  <path d="M403.42 103.274L406.413 133.54L404.75 130.879C409.85 120.458 417.056 112.365 426.368 106.6C435.902 100.614 446.767 97.6202 458.962 97.6202C470.492 97.6202 480.137 100.281 487.897 105.602C495.658 110.924 500.425 118.462 502.199 128.218L500.536 129.549C506.079 119.571 513.507 111.811 522.819 106.268C532.132 100.503 541.888 97.6202 552.087 97.6202C565.834 97.6202 576.699 101.5 584.681 109.261C592.663 116.8 596.765 126.777 596.987 139.194V242.297H563.728V151.832C563.506 144.737 561.843 138.861 558.739 134.205C555.856 129.549 550.535 126.999 542.774 126.555C534.792 126.555 527.697 128.994 521.489 133.872C515.502 138.75 510.735 145.07 507.187 152.83C503.862 160.59 502.088 168.905 501.866 177.774V242.297H468.274V151.832C468.053 144.737 466.279 138.861 462.953 134.205C459.849 129.549 454.417 126.999 446.656 126.555C438.896 126.555 431.911 128.994 425.703 133.872C419.716 138.75 415.06 145.18 411.734 153.163C408.408 160.923 406.745 169.238 406.745 178.107V242.297H373.154V103.274H403.42Z" fill="#3840F7"></path>
  <path d="M637.581 171.455C637.581 157.486 640.906 144.959 647.558 133.872C654.21 122.564 663.412 113.695 675.163 107.265C686.915 100.835 700.329 97.6202 715.406 97.6202C730.706 97.6202 744.009 100.835 755.317 107.265C766.847 113.695 775.716 122.564 781.924 133.872C788.354 144.959 791.569 157.486 791.569 171.455C791.569 185.424 788.354 198.062 781.924 209.37C775.494 220.457 766.514 229.326 754.985 235.977C743.677 242.407 730.262 245.622 714.741 245.622C700.107 245.622 686.915 242.629 675.163 236.643C663.633 230.656 654.432 222.119 647.558 211.033C640.906 199.725 637.581 186.532 637.581 171.455ZM671.505 171.788C671.505 180.435 673.389 188.306 677.159 195.401C680.928 202.275 686.028 207.818 692.458 212.031C699.11 216.022 706.427 218.018 714.409 218.018C727.047 218.018 737.357 213.583 745.34 204.714C753.543 195.845 757.645 184.869 757.645 171.788C757.645 158.706 753.543 147.73 745.34 138.861C737.357 129.771 727.047 125.225 714.409 125.225C706.205 125.225 698.888 127.332 692.458 131.544C686.028 135.757 680.928 141.411 677.159 148.506C673.389 155.602 671.505 163.362 671.505 171.788Z" fill="#3840F7"></path>
  <path d="M845.392 42.4104H879.316V103.607H916.566V129.881H879.316V242.297H845.392V129.881H820.78V103.607H845.392V42.4104Z" fill="#3840F7"></path>
  <path d="M941.588 171.455C941.588 157.486 944.914 144.959 951.566 133.872C958.217 122.564 967.419 113.695 979.171 107.265C990.922 100.835 1004.34 97.6202 1019.41 97.6202C1034.71 97.6202 1048.02 100.835 1059.32 107.265C1070.85 113.695 1079.72 122.564 1085.93 133.872C1092.36 144.959 1095.58 157.486 1095.58 171.455C1095.58 185.424 1092.36 198.062 1085.93 209.37C1079.5 220.457 1070.52 229.326 1058.99 235.977C1047.68 242.407 1034.27 245.622 1018.75 245.622C1004.11 245.622 990.922 242.629 979.171 236.643C967.641 230.656 958.439 222.119 951.566 211.033C944.914 199.725 941.588 186.532 941.588 171.455ZM975.512 171.788C975.512 180.435 977.397 188.306 981.166 195.401C984.935 202.275 990.035 207.818 996.465 212.031C1003.12 216.022 1010.43 218.018 1018.42 218.018C1031.05 218.018 1041.36 213.583 1049.35 204.714C1057.55 195.845 1061.65 184.869 1061.65 171.788C1061.65 158.706 1057.55 147.73 1049.35 138.861C1041.36 129.771 1031.05 125.225 1018.42 125.225C1010.21 125.225 1002.9 127.332 996.465 131.544C990.035 135.757 984.935 141.411 981.166 148.506C977.397 155.602 975.512 163.362 975.512 171.788Z" fill="#3840F7"></path>
  <path d="M1223 103.274L1261.92 193.406L1255.6 193.739L1291.52 103.274H1324.44L1260.92 250.611L1216.35 155.823L1175.44 250.611L1111.59 103.274H1144.18L1185.75 197.73L1174.11 195.734L1204.38 125.89L1193.73 103.274H1223Z" fill="#3840F7"></path>
  <path d="M1386.9 103.274L1389.89 135.535L1388.56 130.879C1392.99 120.901 1400.09 112.919 1409.85 106.933C1419.82 100.946 1431.46 97.9528 1444.77 97.9528C1457.85 97.9528 1468.6 101.833 1477.03 109.593C1485.45 117.132 1489.78 127.11 1490 139.526V242.297H1456.41V151.167C1456.19 144.072 1454.08 138.307 1450.09 133.872C1446.1 129.216 1439.89 126.777 1431.46 126.555C1419.71 126.555 1409.85 131.433 1401.86 141.189C1394.1 150.945 1390.22 163.473 1390.22 178.772V242.297H1356.63V103.274H1386.9Z" fill="#3840F7"></path>
</svg>
