<svg xmlns="http://www.w3.org/2000/svg" width="271" height="271" viewBox="0 0 271 271" fill="none"><circle cx="135.5" cy="135.5" r="135.5" fill="#3840F7"></circle><path d="M200.057 237.84H175.55C174.357 237.84 173.269 237.151 172.758 236.069L141.907 170.652C140.943 168.606 142.438 166.252 144.696 166.252H169.202C170.395 166.252 171.487 166.941 171.994 168.023L202.849 233.437C203.81 235.486 202.318 237.84 200.057 237.84Z" fill="#FBFBFB"></path><path d="M107.007 237.84H80.8203C79.4013 237.84 78.2539 236.686 78.2539 235.267V128.496C78.2539 127.077 79.4013 125.927 80.8203 125.927H107.007C108.426 125.927 109.58 127.077 109.58 128.496V235.267C109.58 236.686 108.426 237.84 107.007 237.84Z" fill="#FBFBFB"></path><path d="M211.99 96.5348C211.13 131.246 182.941 158.464 149.654 158.464C149.654 158.464 134.314 158.447 126.528 158.422C124.079 158.412 122.106 156.343 122.106 153.79L122.11 131.498C122.113 128.953 124.066 126.885 126.506 126.868C133.444 126.819 146.149 126.775 146.149 126.775C162.429 126.775 176.554 113.918 177.607 96.9726C178.207 87.3206 174.687 78.5118 168.706 72.2751C163.166 66.4965 155.517 62.9167 147.066 62.9167H83.7805C83.7203 62.9167 83.6699 62.8675 83.6699 62.8047V31.3412C83.6699 31.2819 83.7203 31.2292 83.7805 31.2292H151.028C185.243 31.2276 212.883 60.6297 211.99 96.5348Z" fill="#FBFBFB"></path><path opacity="0.3" d="M151.029 31.2292H83.7805C83.7203 31.2292 83.6699 31.2819 83.6699 31.3413V62.8356C83.6699 62.8984 83.7203 62.9477 83.7805 62.9477H147.067C155.516 62.9477 166.282 68.3108 171.867 74.0492C189.725 92.3921 194.519 147.715 158.675 157.911C187.887 153.519 211.209 128.156 211.99 96.5987C212.885 60.6601 185.244 31.2292 151.029 31.2292Z" fill="#FBFBFB"></path><path d="M151.082 31.2292L83.7804 31.2293C83.6699 31.2293 83.6699 31.282 83.6699 31.3415L83.7804 62.849C83.7804 62.9118 83.8308 62.9611 83.8909 62.9611H147.123C197.076 63.9074 202.463 131.335 180.626 150.166C198.79 139.488 211.418 119.717 211.99 96.6246C212.884 60.6725 185.267 31.2292 151.082 31.2292Z" fill="#FBFBFB"></path><path d="M78.1387 37.3144C78.1387 33.9537 80.8631 31.2292 84.2238 31.2292V31.2292V62.9585V62.9585C80.8631 62.9585 78.1387 60.2341 78.1387 56.8734V37.3144Z" fill="#FBFBFB"></path><g clip-path="url(#clip0_1235_2)"><path d="M77.6875 90.9004C77.6875 92.0198 78.595 92.9272 79.7144 92.9272V92.9272C80.8338 92.9272 81.7413 92.0198 81.7413 90.9004V86.4996C81.7413 84.8427 83.0844 83.4996 84.7413 83.4996H89.8555C90.9713 83.4996 91.8759 82.595 91.8759 81.4792V81.4792C91.8759 80.3633 90.9713 79.4587 89.8555 79.4587H80.6875C79.0306 79.4587 77.6875 80.8019 77.6875 82.4587V90.9004Z" fill="#FFC837"></path><path d="M81.7413 99.6685C81.7413 98.5491 80.8338 97.6416 79.7144 97.6416V97.6416C78.595 97.6416 77.6875 98.5491 77.6875 99.6685V108.783C77.6875 110.44 79.0306 111.783 80.6875 111.783H89.1799C90.2957 111.783 91.2003 110.879 91.2003 109.763V109.763C91.2003 108.647 90.2957 107.743 89.1799 107.743H84.7413C83.0844 107.743 81.7413 106.399 81.7413 104.743V99.6685Z" fill="#FFC837"></path><path d="M97.9501 79.4587C96.8343 79.4587 95.9297 80.3633 95.9297 81.4792V81.4792C95.9297 82.595 96.8343 83.4996 97.9501 83.4996H103.064C104.721 83.4996 106.064 84.8427 106.064 86.4996V90.9002C106.064 92.0197 106.972 92.9272 108.091 92.9272V92.9272C109.211 92.9272 110.118 92.0197 110.118 90.9002V82.4587C110.118 80.8019 108.775 79.4587 107.118 79.4587H97.9501Z" fill="#FFC837"></path><path d="M106.064 104.743C106.064 106.399 104.721 107.743 103.064 107.743H98.6259C97.51 107.743 96.6055 108.647 96.6055 109.763V109.763C96.6055 110.879 97.51 111.783 98.6259 111.783H107.118C108.775 111.783 110.118 110.44 110.118 108.783V99.6687C110.118 98.5491 109.211 97.6416 108.091 97.6416V97.6416C106.972 97.6416 106.064 98.5491 106.064 99.6687V104.743Z" fill="#FFC837"></path><path d="M90.1931 93.6006H84.1015C83.1717 93.6006 82.418 94.3543 82.418 95.2841C82.418 96.214 83.1717 96.9677 84.1015 96.9677H90.1931C91.1229 96.9677 91.8767 96.214 91.8767 95.2841C91.8767 94.3543 91.1229 93.6006 90.1931 93.6006Z" fill="#FFC837"></path><path d="M103.705 93.6006H97.6133C96.6834 93.6006 95.9297 94.3543 95.9297 95.2841C95.9297 96.214 96.6834 96.9677 97.6133 96.9677H103.705C104.635 96.9677 105.389 96.214 105.389 95.2841C105.389 94.3543 104.635 93.6006 103.705 93.6006Z" fill="#FFC837"></path></g><defs><clipPath id="clip0_1235_2"><rect width="33.7449" height="42.0428" fill="white" transform="translate(77.0312 78.804)"></rect></clipPath></defs></svg>